<svg xmlns="http://www.w3.org/2000/svg" xmlns:xlink="http://www.w3.org/1999/xlink" width="40" height="40" viewBox="0 0 40 40">
	<defs>
		<linearGradient id="eye-color" x1="5%" x2="90%" y1="90%" y2="5%">
			<stop offset="0%" stop-color="#3592C4" stop-opacity=".9"/>
			<stop offset="35%" stop-color="#499C54" stop-opacity=".9"/>
			<stop offset="100%" stop-color="#C75450"/>
		</linearGradient>
		<path id="eye-lid" d="M7.10542736e-15,7.034179 C0.0204263508,5.81390063 1.68768931,4.27648524 5.00178888,2.42193283 C9.53162232,-0.112937741 16.1274396,-1.3289066e-15 18.1266974,-1.3289066e-15 C20.0466066,-2.14184937e-06 27.5791414,0.0597495599 31.2189262,2.42193283 C34.110158,4.29831286 35.5557739,5.83572825 35.5557739,7.034179 C35.5557739,6.32300557 34.7415241,5.65303927 33.1130246,5.02428008 C30.8777826,3.99548139 21.1346066,3.5 18.1266974,3.5 C15.6215503,3.5 7.68723462,4.02907597 3.16588275,5.02428008 C1.05529425,5.48884607 7.10542736e-15,6.15881238 7.10542736e-15,7.034179 Z"/>
	</defs>
	<g fill="none" fill-rule="evenodd">
		<rect width="42" height="42"/>
		<g fill-rule="nonzero" stroke="#000" stroke-width="2" transform="translate(2 13)">
			<ellipse cx="18.688" cy="7.966" fill="#D5D5D5" rx="18" ry="7"/>
			<circle cx="19" cy="8" r="7" fill="url(#eye-color)"/>
			<circle cx="19" cy="8" r="3" fill="#000"/>
		</g>
		<use fill="#000" stroke="#000" transform="translate(3 14)" xlink:href="#eye-lid"/>
	</g>
</svg>