<svg xmlns="http://www.w3.org/2000/svg" width="16" height="16" viewBox="0 0 16 16">
	<g fill="none" fill-rule="evenodd">
		<rect width="16" height="16"/>
		<path fill="#6E6E6E" fill-rule="nonzero"
			  d="M8,3 C4.81818182,3 2.10090909,5.07333333 1,8 C2.10090909,10.9266667 4.81818182,13 8,13 C11.1818182,13 13.8990909,10.9266667 15,8 C13.8990909,5.07333333 11.1818182,3 8,3 Z M8,11.5 C6.068,11.5 4.5,9.932 4.5,8 C4.5,6.068 6.068,4.5 8,4.5 C9.932,4.5 11.5,6.068 11.5,8 C11.5,9.932 9.932,11.5 8,11.5 Z"/>
		<line x1="2.5" x2="13.5" y1="13.5" y2="2.5" stroke="#6E6E6E" stroke-linecap="square"/>
		<circle cx="8" cy="8" r="2" fill="#6E6E6E"/>
	</g>
</svg>
